<?xml version="1.0"?>
<svg width="512" height="512" xmlns="http://www.w3.org/2000/svg" xmlns:svg="http://www.w3.org/2000/svg" version="1.1" xml:space="preserve">
 <g class="layer">
  <title>Layer 1</title>
  <g id="svg_1">
   <linearGradient gradientTransform="translate(0 -1) translate(0 -1) translate(0 -1) translate(0 1) translate(0 1) translate(0 1) translate(0 1) translate(0 1) translate(0 1) translate(0 1) translate(0 1) translate(0 1) translate(0 1) translate(0 1) translate(0 1) translate(0 1) translate(0 1) translate(0 1) translate(0 1) translate(0 1) translate(0 1) translate(0 1) translate(0 1) translate(0 1) translate(0 1) translate(0 1) translate(0 1) translate(0 1) translate(0 1) translate(0 1) translate(0 1) translate(0 1) translate(0 1) translate(0 1) translate(0 1) translate(0 1) translate(0 1) translate(0 1) translate(0 1) translate(0 1) translate(0 1) translate(0 1) translate(0 1) translate(0 1) translate(0 1) translate(0 1) translate(0 1) translate(0 1) translate(0 1) translate(0 1) translate(0 1) translate(0 1) translate(0 1) translate(0 1) translate(0 1) translate(0 1) translate(0 1) translate(0 1) translate(0 1) translate(0 1) translate(0 1) translate(0 1) translate(0 1) translate(0 1) translate(0 1) translate(0 1) translate(0 1) translate(0 1) translate(0 1) translate(0 1) translate(0 1) translate(0 1) translate(0 1) translate(0 1) translate(0 1) translate(0 1) translate(0 1) translate(0 1) translate(0 1) translate(0 1) translate(0 1) translate(0 1) translate(0 1) translate(0 1) translate(0 1) translate(0 1) translate(0 1) translate(0 1) translate(0 -1) translate(0 1) translate(0 -1) translate(0 1)" id="SVGID_1_" x1="0.37" x2="1.13" y1="0.49" y2="0.95">
    <stop offset="0" stop-color="#F0F0F0"/>
    <stop offset="1" stop-color="#FFFFFF"/>
   </linearGradient>
   <path d="m476.8,356.57l-72.82,0c51.24,-24.47 85.82,-78.23 81.94,-139.64c-2.61,-41.2 -22.94,-77.88 -53.32,-102.58l0.01,-0.01c-8.45,-6.84 -17.6,-12.7 -27.34,-17.54c-16.57,-8.19 -34.81,-13.28 -54.03,-14.51c-64.34,-4.06 -120.37,34.11 -143,89.56c0.01,0 0.01,0 0.02,0c-1.64,4.02 -3.1,8.13 -4.38,12.32c-0.4,-0.06 -0.82,-0.09 -1.22,-0.14c0.4,0.05 0.8,0.07 1.2,0.13c1.29,-4.19 2.77,-8.32 4.38,-12.31c-5.86,-1.04 -11.99,-1.62 -18.18,-1.62c-57.89,0 -104.89,46.94 -104.89,104.84c0,2.96 0.19,5.93 0.38,8.89c-6.7,-1.87 -14.05,-2.38 -21.59,-1.29c-23.28,3.55 -41.59,23.02 -43.72,46.42c-0.96,10.45 1.17,20.31 5.55,28.76c-14.83,4.13 -25.79,17.79 -25.79,33.91c0,2.13 0.19,4.19 0.58,6.19c2.51,14.44 13.99,25.85 28.43,28.43c2,0.39 4.06,0.58 6.19,0.58l84.78,0l0,0l356.82,0c19.36,0 35.2,-15.84 35.2,-35.2c0,-19.35 -15.84,-35.19 -35.2,-35.19zm-376.83,-55.32l-9.46,-2.59l9.46,2.58l0,0.01zm-34.08,-5.81c2,-0.32 4,-0.45 6,-0.45c2.21,0 4.45,0.27 6.68,0.66c-2.22,-0.39 -4.46,-0.65 -6.71,-0.65c-1.98,0 -3.99,0.15 -5.96,0.45c-6.53,0.99 -12.56,3.67 -17.62,7.55c5.06,-3.89 11.08,-6.57 17.61,-7.56zm-28.63,56.46l2.19,4.22l-2.18,-4.2c-0.17,-0.33 -0.27,-0.67 -0.43,-1c0.15,0.32 0.26,0.67 0.42,0.98zm-11.46,19.66c-4.66,2.18 -8.34,5.89 -10.57,10.39c2.23,-4.51 5.9,-8.23 10.57,-10.39zm1.07,40.86c-0.11,-0.04 -0.24,-0.06 -0.35,-0.11c0.11,0.05 0.24,0.07 0.35,0.11zm3.83,1.19c1.45,0.3 2.95,0.46 4.49,0.46l97.68,0l0,0l-97.67,0c-1.54,0 -3.04,-0.16 -4.5,-0.46z" fill="url(#SVGID_1_)" id="svg_2"/>
   <g id="svg_3">
    <path d="m432.61,114.34l-124.43,124.43c-6.26,1.03 -12.32,2.77 -17.99,5.22c-11.48,-37.13 -43,-65.31 -81.95,-72.14c22.63,-55.45 78.66,-93.62 143,-89.55c19.22,1.22 37.46,6.31 54.03,14.5c9.74,4.84 18.89,10.7 27.34,17.54z" fill="#F7EC88" id="svg_4"/>
    <linearGradient gradientTransform="translate(0 -1) translate(0 -1) translate(0 -1) translate(0 1) translate(0 1) translate(0 1) translate(0 1) translate(0 1) translate(0 1) translate(0 1) translate(0 1) translate(0 1) translate(0 1) translate(0 1) translate(0 1) translate(0 1) translate(0 1) translate(0 1) translate(0 1) translate(0 1) translate(0 1) translate(0 1) translate(0 1) translate(0 1) translate(0 1) translate(0 1) translate(0 1) translate(0 1) translate(0 1) translate(0 1) translate(0 1) translate(0 1) translate(0 1) translate(0 1) translate(0 1) translate(0 1) translate(0 1) translate(0 1) translate(0 1) translate(0 1) translate(0 1) translate(0 1) translate(0 1) translate(0 1) translate(0 1) translate(0 1) translate(0 1) translate(0 1) translate(0 1) translate(0 1) translate(0 1) translate(0 1) translate(0 1) translate(0 1) translate(0 1) translate(0 1) translate(0 1) translate(0 1) translate(0 1) translate(0 1) translate(0 1) translate(0 1) translate(0 1) translate(0 1) translate(0 1) translate(0 1) translate(0 1) translate(0 1) translate(0 1) translate(0 1) translate(0 1) translate(0 1) translate(0 1) translate(0 1) translate(0 1) translate(0 1) translate(0 1) translate(0 1) translate(0 1) translate(0 1) translate(0 1) translate(0 1) translate(0 1) translate(0 1) translate(0 1) translate(0 1) translate(0 1) translate(0 1) translate(0 -1) translate(0 1) translate(0 -1) translate(0 1)" id="SVGID_2_" x1="0.5" x2="0.5" y1="1.26" y2="0.49">
     <stop offset="0" stop-color="#D2D0CF"/>
     <stop offset="1" stop-color="#FFFFFF"/>
    </linearGradient>
    <path d="m208.24,171.85c-1.61,3.99 -3.09,8.12 -4.38,12.31c-4.51,-0.64 -9.09,-1.03 -13.8,-1.03c-50.74,0 -91.93,41.2 -91.93,91.94c0,2.64 0.06,5.22 0.32,7.8l1.55,18.37l-17.8,-4.83c-3.41,-0.97 -6.9,-1.42 -10.31,-1.42c-2,0 -4,0.13 -6,0.45c-17.41,2.64 -31.2,17.28 -32.81,34.88c-0.71,7.48 0.77,14.96 4.19,21.6l7.35,14.12l-15.35,4.25c-9.67,2.65 -16.37,11.48 -16.37,21.47c0,12.32 9.99,22.31 22.3,22.31l97.68,0l-12.9,12.89l-84.78,0c-2.12,0 -4.19,-0.19 -6.19,-0.58c-14.44,-2.58 -25.91,-13.99 -28.43,-28.43c-0.39,-2 -0.58,-4.06 -0.58,-6.19c0,-16.12 10.96,-29.78 25.79,-33.91c-4.38,-8.45 -6.51,-18.31 -5.54,-28.75c2.12,-23.41 20.43,-42.88 43.71,-46.42c7.54,-1.1 14.89,-0.58 21.6,1.29c-0.2,-2.97 -0.39,-5.94 -0.39,-8.9c0,-57.9 47,-104.83 104.89,-104.83c6.19,0 12.32,0.58 18.18,1.61z" fill="url(#SVGID_2_)" id="svg_5"/>
    <path d="m277.89,247.78l4.23,13.66l5.9,-2.52l20.16,-20.16c-6.27,1.04 -12.3,2.78 -17.98,5.2c-11.5,-37.07 -43.03,-65.31 -81.93,-72.13c-1.64,4.02 -3.11,8.14 -4.39,12.34c34.57,5.16 63.4,29.41 74.01,63.61z" fill="#EFE748" id="svg_6"/>
    <linearGradient gradientTransform="translate(0 -1) translate(0 -1) translate(0 -1) translate(0 1) translate(0 1) translate(0 1) translate(0 1) translate(0 1) translate(0 1) translate(0 1) translate(0 1) translate(0 1) translate(0 1) translate(0 1) translate(0 1) translate(0 1) translate(0 1) translate(0 1) translate(0 1) translate(0 1) translate(0 1) translate(0 1) translate(0 1) translate(0 1) translate(0 1) translate(0 1) translate(0 1) translate(0 1) translate(0 1) translate(0 1) translate(0 1) translate(0 1) translate(0 1) translate(0 1) translate(0 1) translate(0 1) translate(0 1) translate(0 1) translate(0 1) translate(0 1) translate(0 1) translate(0 1) translate(0 1) translate(0 1) translate(0 1) translate(0 1) translate(0 1) translate(0 1) translate(0 1) translate(0 1) translate(0 1) translate(0 1) translate(0 1) translate(0 1) translate(0 1) translate(0 1) translate(0 1) translate(0 1) translate(0 1) translate(0 1) translate(0 1) translate(0 1) translate(0 1) translate(0 1) translate(0 1) translate(0 1) translate(0 1) translate(0 1) translate(0 1) translate(0 1) translate(0 1) translate(0 1) translate(0 1) translate(0 1) translate(0 1) translate(0 1) translate(0 1) translate(0 1) translate(0 1) translate(0 1) translate(0 1) translate(0 1) translate(0 1) translate(0 1) translate(0 1) translate(0 1) translate(0 1) translate(0 1) translate(0 -1) translate(0 1) translate(0 -1) translate(0 1)" id="SVGID_3_" x1="0.5" x2="0.5" y1="3.58" y2="1.39">
     <stop offset="0" stop-color="#D2D0CF"/>
     <stop offset="1" stop-color="#FFFFFF"/>
    </linearGradient>
    <path d="m277.89,247.78l4.23,13.66l5.9,-2.52l20.16,-20.16c-6.27,1.04 -12.3,2.78 -17.98,5.2c-11.5,-37.07 -43.03,-65.31 -81.93,-72.13c-1.64,4.02 -3.11,8.14 -4.39,12.34c34.57,5.16 63.4,29.41 74.01,63.61z" fill="url(#SVGID_3_)" id="svg_7"/>
    <linearGradient gradientTransform="translate(0 -1) translate(0 -1) translate(0 -1) translate(0 1) translate(0 1) translate(0 1) translate(0 1) translate(0 1) translate(0 1) translate(0 1) translate(0 1) translate(0 1) translate(0 1) translate(0 1) translate(0 1) translate(0 1) translate(0 1) translate(0 1) translate(0 1) translate(0 1) translate(0 1) translate(0 1) translate(0 1) translate(0 1) translate(0 1) translate(0 1) translate(0 1) translate(0 1) translate(0 1) translate(0 1) translate(0 1) translate(0 1) translate(0 1) translate(0 1) translate(0 1) translate(0 1) translate(0 1) translate(0 1) translate(0 1) translate(0 1) translate(0 1) translate(0 1) translate(0 1) translate(0 1) translate(0 1) translate(0 1) translate(0 1) translate(0 1) translate(0 1) translate(0 1) translate(0 1) translate(0 1) translate(0 1) translate(0 1) translate(0 1) translate(0 1) translate(0 1) translate(0 1) translate(0 1) translate(0 1) translate(0 1) translate(0 1) translate(0 1) translate(0 1) translate(0 1) translate(0 1) translate(0 1) translate(0 1) translate(0 1) translate(0 1) translate(0 1) translate(0 1) translate(0 1) translate(0 1) translate(0 1) translate(0 1) translate(0 1) translate(0 1) translate(0 1) translate(0 1) translate(0 1) translate(0 1) translate(0 1) translate(0 1) translate(0 1) translate(0 1) translate(0 1) translate(0 1) translate(0 -1) translate(0 1) translate(0 -1) translate(0 1)" id="SVGID_4_" x1="0.5" x2="0.5" y1="1.34" y2="0.49">
     <stop offset="0" stop-color="#D2D0CF"/>
     <stop offset="1" stop-color="#FFFFFF"/>
    </linearGradient>
    <path d="m197.88,235.68c-1.14,-18.02 1.08,-35.35 6,-51.51c-4.52,-0.68 -9.14,-1.06 -13.84,-1.06c-50.7,0 -91.94,41.25 -91.94,91.95c0,2.63 0.12,5.24 0.33,7.81l1.54,18.38l-17.79,-4.86c-3.37,-0.93 -6.85,-1.39 -10.32,-1.39c-1.98,0 -3.98,0.15 -5.96,0.45c-17.43,2.64 -31.24,17.29 -32.84,34.84c-0.69,7.52 0.77,15 4.21,21.62l7.33,14.11l-15.32,4.26c-9.66,2.68 -16.4,11.51 -16.4,21.49c0,12.29 10,22.3 22.31,22.3l97.68,0l97.08,-97.07c-18.36,-22.59 -30.13,-50.7 -32.07,-81.32z" fill="url(#SVGID_4_)" id="svg_8"/>
    <linearGradient gradientTransform="translate(0 -1) translate(0 -1) translate(0 -1) translate(0 1) translate(0 1) translate(0 1) translate(0 1) translate(0 1) translate(0 1) translate(0 1) translate(0 1) translate(0 1) translate(0 1) translate(0 1) translate(0 1) translate(0 1) translate(0 1) translate(0 1) translate(0 1) translate(0 1) translate(0 1) translate(0 1) translate(0 1) translate(0 1) translate(0 1) translate(0 1) translate(0 1) translate(0 1) translate(0 1) translate(0 1) translate(0 1) translate(0 1) translate(0 1) translate(0 1) translate(0 1) translate(0 1) translate(0 1) translate(0 1) translate(0 1) translate(0 1) translate(0 1) translate(0 1) translate(0 1) translate(0 1) translate(0 1) translate(0 1) translate(0 1) translate(0 1) translate(0 1) translate(0 1) translate(0 1) translate(0 1) translate(0 1) translate(0 1) translate(0 1) translate(0 1) translate(0 1) translate(0 1) translate(0 1) translate(0 1) translate(0 1) translate(0 1) translate(0 1) translate(0 1) translate(0 1) translate(0 1) translate(0 1) translate(0 1) translate(0 1) translate(0 1) translate(0 1) translate(0 1) translate(0 1) translate(0 1) translate(0 1) translate(0 1) translate(0 1) translate(0 1) translate(0 1) translate(0 1) translate(0 1) translate(0 1) translate(0 1) translate(0 1) translate(0 1) translate(0 1) translate(0 1) translate(0 1) translate(0 -1) translate(0 1) translate(0 -1) translate(0 1)" id="SVGID_5_" x1="0.9" x2="0.66" y1="-0.32" y2="0.29">
     <stop offset="0" stop-color="#D2D0CF"/>
     <stop offset="1" stop-color="#FFFFFF"/>
    </linearGradient>
    <path d="m197.88,235.68c-1.14,-18.02 1.08,-35.35 6,-51.51c-4.52,-0.68 -9.14,-1.06 -13.84,-1.06c-50.7,0 -91.94,41.25 -91.94,91.95c0,2.63 0.12,5.24 0.33,7.81l1.54,18.38l-17.79,-4.86c-3.37,-0.93 -6.85,-1.39 -10.32,-1.39c-1.98,0 -3.98,0.15 -5.96,0.45c-17.43,2.64 -31.24,17.29 -32.84,34.84c-0.69,7.52 0.77,15 4.21,21.62l7.33,14.11l-15.32,4.26c-9.66,2.68 -16.4,11.51 -16.4,21.49c0,12.29 10,22.3 22.31,22.3l97.68,0l97.08,-97.07c-18.36,-22.59 -30.13,-50.7 -32.07,-81.32z" fill="url(#SVGID_5_)" id="svg_9" opacity="0.3"/>
    <path d="m197.88,235.68c1.94,30.62 13.71,58.73 32.06,81.32l58.08,-58.08l-5.89,2.52l-4.24,-13.65c-10.61,-34.21 -39.44,-58.45 -74.01,-63.62c-4.92,16.16 -7.14,33.49 -6,51.51z" fill="#EFE748" id="svg_10"/>
    <linearGradient gradientTransform="translate(0 -1) translate(0 -1) translate(0 -1) translate(0 1) translate(0 1) translate(0 1) translate(0 1) translate(0 1) translate(0 1) translate(0 1) translate(0 1) translate(0 1) translate(0 1) translate(0 1) translate(0 1) translate(0 1) translate(0 1) translate(0 1) translate(0 1) translate(0 1) translate(0 1) translate(0 1) translate(0 1) translate(0 1) translate(0 1) translate(0 1) translate(0 1) translate(0 1) translate(0 1) translate(0 1) translate(0 1) translate(0 1) translate(0 1) translate(0 1) translate(0 1) translate(0 1) translate(0 1) translate(0 1) translate(0 1) translate(0 1) translate(0 1) translate(0 1) translate(0 1) translate(0 1) translate(0 1) translate(0 1) translate(0 1) translate(0 1) translate(0 1) translate(0 1) translate(0 1) translate(0 1) translate(0 1) translate(0 1) translate(0 1) translate(0 1) translate(0 1) translate(0 1) translate(0 1) translate(0 1) translate(0 1) translate(0 1) translate(0 1) translate(0 1) translate(0 1) translate(0 1) translate(0 1) translate(0 1) translate(0 1) translate(0 1) translate(0 1) translate(0 1) translate(0 1) translate(0 1) translate(0 1) translate(0 1) translate(0 1) translate(0 1) translate(0 1) translate(0 1) translate(0 1) translate(0 1) translate(0 1) translate(0 1) translate(0 1) translate(0 1) translate(0 1) translate(0 1) translate(0 -1) translate(0 1) translate(0 -1) translate(0 1)" id="SVGID_6_" x1="0.5" x2="0.5" y1="2.32" y2="0.85">
     <stop offset="0" stop-color="#D2D0CF"/>
     <stop offset="1" stop-color="#FFFFFF"/>
    </linearGradient>
    <path d="m197.88,235.68c1.94,30.62 13.71,58.73 32.06,81.32l58.08,-58.08l-5.89,2.52l-4.24,-13.65c-10.61,-34.21 -39.44,-58.45 -74.01,-63.62c-4.92,16.16 -7.14,33.49 -6,51.51z" fill="url(#SVGID_6_)" id="svg_11"/>
    <linearGradient gradientTransform="translate(0 -1) translate(0 -1) translate(0 -1) translate(0 1) translate(0 1) translate(0 1) translate(0 1) translate(0 1) translate(0 1) translate(0 1) translate(0 1) translate(0 1) translate(0 1) translate(0 1) translate(0 1) translate(0 1) translate(0 1) translate(0 1) translate(0 1) translate(0 1) translate(0 1) translate(0 1) translate(0 1) translate(0 1) translate(0 1) translate(0 1) translate(0 1) translate(0 1) translate(0 1) translate(0 1) translate(0 1) translate(0 1) translate(0 1) translate(0 1) translate(0 1) translate(0 1) translate(0 1) translate(0 1) translate(0 1) translate(0 1) translate(0 1) translate(0 1) translate(0 1) translate(0 1) translate(0 1) translate(0 1) translate(0 1) translate(0 1) translate(0 1) translate(0 1) translate(0 1) translate(0 1) translate(0 1) translate(0 1) translate(0 1) translate(0 1) translate(0 1) translate(0 1) translate(0 1) translate(0 1) translate(0 1) translate(0 1) translate(0 1) translate(0 1) translate(0 1) translate(0 1) translate(0 1) translate(0 1) translate(0 1) translate(0 1) translate(0 1) translate(0 1) translate(0 1) translate(0 1) translate(0 1) translate(0 1) translate(0 1) translate(0 1) translate(0 1) translate(0 1) translate(0 1) translate(0 1) translate(0 1) translate(0 1) translate(0 1) translate(0 1) translate(0 1) translate(0 1) translate(0 -1) translate(0 1) translate(0 -1) translate(0 1)" id="SVGID_7_" x1="-2.04" x2="3.33" y1="0.5" y2="0.5">
     <stop offset="0" stop-color="#D2D0CF"/>
     <stop offset="1" stop-color="#FFFFFF"/>
    </linearGradient>
    <path d="m197.88,235.68c1.94,30.62 13.71,58.73 32.06,81.32l58.08,-58.08l-5.89,2.52l-4.24,-13.65c-10.61,-34.21 -39.44,-58.45 -74.01,-63.62c-4.92,16.16 -7.14,33.49 -6,51.51z" fill="url(#SVGID_7_)" id="svg_12" opacity="0.3"/>
    <path d="m332.61,238.44c34.83,4.89 62.57,33.18 66.88,68.08c2.27,18.36 -1.79,35.66 -10.27,50.05l14.76,0c51.24,-24.47 85.82,-78.23 81.94,-139.64c-2.61,-41.2 -22.94,-77.88 -53.33,-102.58l-124.41,124.41c7.82,-1.3 16.01,-1.5 24.43,-0.32z" fill="#EFE748" id="svg_13"/>
    <path d="m512,391.76c0,-19.35 -15.84,-35.19 -35.2,-35.19l-72.82,0c-11.47,5.47 -23.76,9.47 -36.66,11.77l-0.66,1.12l110.15,0c12.29,0 22.3,10.01 22.3,22.31c0,12.29 -10.01,22.3 -22.3,22.3l-343.94,0l-12.89,12.89l356.82,0c19.36,0 35.2,-15.84 35.2,-35.2z" fill="#EDEDEC" id="svg_14"/>
    <path d="m399.49,306.52c-4.31,-34.9 -32.05,-63.19 -66.88,-68.08c-8.42,-1.18 -16.61,-0.98 -24.43,0.32l-20.16,20.16l7.25,-3.1c8.2,-3.51 16.93,-5.29 25.93,-5.29c3.18,0 6.42,0.23 9.62,0.68c28.81,4.05 52.31,27.97 55.87,56.89c1.83,14.8 -1.13,29.3 -8.58,41.92l-10.78,18.32c12.89,-2.3 25.18,-6.3 36.65,-11.77l-14.75,0c8.47,-14.39 12.53,-31.69 10.26,-50.05z" fill="#F8F6E7" id="svg_15"/>
    <linearGradient gradientTransform="translate(0 -1) translate(0 -1) translate(0 -1) translate(0 1) translate(0 1) translate(0 1) translate(0 1) translate(0 1) translate(0 1) translate(0 1) translate(0 1) translate(0 1) translate(0 1) translate(0 1) translate(0 1) translate(0 1) translate(0 1) translate(0 1) translate(0 1) translate(0 1) translate(0 1) translate(0 1) translate(0 1) translate(0 1) translate(0 1) translate(0 1) translate(0 1) translate(0 1) translate(0 1) translate(0 1) translate(0 1) translate(0 1) translate(0 1) translate(0 1) translate(0 1) translate(0 1) translate(0 1) translate(0 1) translate(0 1) translate(0 1) translate(0 1) translate(0 1) translate(0 1) translate(0 1) translate(0 1) translate(0 1) translate(0 1) translate(0 1) translate(0 1) translate(0 1) translate(0 1) translate(0 1) translate(0 1) translate(0 1) translate(0 1) translate(0 1) translate(0 1) translate(0 1) translate(0 1) translate(0 1) translate(0 1) translate(0 1) translate(0 1) translate(0 1) translate(0 1) translate(0 1) translate(0 1) translate(0 1) translate(0 1) translate(0 1) translate(0 1) translate(0 1) translate(0 1) translate(0 1) translate(0 1) translate(0 1) translate(0 1) translate(0 1) translate(0 1) translate(0 1) translate(0 1) translate(0 1) translate(0 1) translate(0 1) translate(0 1) translate(0 1) translate(0 1) translate(0 1) translate(0 -1) translate(0 1) translate(0 -1) translate(0 1)" id="SVGID_8_" x1="0.35" x2="1.07" y1="0.57" y2="1.24">
     <stop offset="0" stop-color="#F0F0F0"/>
     <stop offset="1" stop-color="#FFFFFF"/>
    </linearGradient>
    <path d="m476.81,369.46l-110.15,0l0.66,-1.12l10.79,-18.32c7.45,-12.62 10.41,-27.12 8.58,-41.92c-3.57,-28.92 -27.06,-52.84 -55.87,-56.89c-3.2,-0.45 -6.44,-0.68 -9.62,-0.68c-9,0 -17.73,1.78 -25.93,5.29l-7.25,3.1l-58.08,58.08l-97.07,97.07l343.93,0c12.3,0 22.31,-10.01 22.31,-22.3c0,-12.3 -10.01,-22.31 -22.3,-22.31z" fill="url(#SVGID_8_)" id="svg_16"/>
   </g>
  </g>
 </g>
</svg>